<svg width="754" height="220" viewBox="0 0 754 220" fill="none" xmlns="http://www.w3.org/2000/svg">
<rect width="754" height="219.983" fill="url(#paint0_linear)"/>
<g clip-path="url(#clip0)">
<path d="M365.94 93.6665C367.843 95.6703 369.273 98.0812 370.126 100.72C370.978 103.358 371.229 106.157 370.862 108.907C370.495 111.657 369.518 114.289 368.004 116.605C366.49 118.922 364.477 120.865 362.117 122.289C360.201 124.449 357.809 126.125 355.134 127.182H355.331C359.213 127.182 362.994 125.937 366.128 123.627C369.262 121.317 371.587 118.061 372.768 114.331C373.949 110.6 373.923 106.588 372.696 102.873C371.469 99.1577 369.103 95.9323 365.94 93.6625V93.6665Z" fill="#FDE1F9"/>
<path d="M366.227 105.461C366.954 108.39 366.96 111.454 366.243 114.385C365.526 117.316 364.109 120.026 362.116 122.277C365.46 120.249 368.076 117.196 369.58 113.564C371.084 109.931 371.398 105.908 370.477 102.083C369.556 98.2569 367.448 94.8281 364.459 92.2963C361.471 89.7645 357.759 88.2621 353.865 88.0082C357.47 89.2574 360.598 91.6103 362.814 94.739C365.03 97.8677 366.224 101.616 366.227 105.461V105.461Z" fill="#FFAFF1"/>
<path d="M362.116 122.289C364.111 120.036 365.529 117.325 366.246 114.391C366.963 111.458 366.956 108.392 366.227 105.461C366.227 109.968 364.594 114.318 361.636 117.694C358.677 121.07 354.598 123.239 350.166 123.792C345.733 124.346 341.253 123.245 337.569 120.699C333.884 118.152 331.249 114.334 330.16 109.964V109.964C330.159 113.706 331.284 117.36 333.387 120.442C335.49 123.524 338.471 125.889 341.935 127.224C345.4 128.559 349.184 128.801 352.788 127.917C356.392 127.034 359.645 125.067 362.116 122.277V122.289Z" fill="#AFE5D5"/>
<path d="M347.918 123.943C350.323 123.943 352.704 123.465 354.926 122.536C357.148 121.607 359.167 120.245 360.868 118.529C362.568 116.813 363.916 114.776 364.836 112.533C365.756 110.291 366.229 107.888 366.228 105.461V105.461C366.228 101.808 365.155 98.2355 363.144 95.197C361.132 92.1586 358.273 89.7902 354.927 88.3914C351.582 86.9925 347.9 86.6261 344.348 87.3385C340.796 88.0508 337.533 89.8099 334.972 92.3933C332.411 94.9767 330.666 98.2684 329.96 101.852C329.253 105.436 329.615 109.15 331.001 112.526C332.387 115.902 334.733 118.787 337.745 120.817C340.756 122.847 344.296 123.931 347.918 123.931V123.943Z" fill="#4BF0BD"/>
<path d="M448.753 105.884C450.273 105.884 451.506 104.64 451.506 103.106C451.506 101.573 450.273 100.329 448.753 100.329C447.232 100.329 446 101.573 446 103.106C446 104.64 447.232 105.884 448.753 105.884Z" stroke="#1E1E1E" stroke-width="0.75" stroke-miterlimit="10"/>
<path d="M447.876 101.242H448.563C448.828 101.237 449.092 101.259 449.353 101.305C449.548 101.352 449.721 101.463 449.847 101.62C449.976 101.785 450.042 101.992 450.032 102.202C450.032 102.378 449.982 102.551 449.89 102.7C449.795 102.846 449.657 102.959 449.495 103.023C449.275 103.1 449.041 103.134 448.808 103.122L450.028 104.768H449.598L448.381 103.122H448.184L448.156 104.748H447.809L447.876 101.242ZM448.215 101.592L448.196 102.788H448.792C448.965 102.798 449.139 102.779 449.305 102.732C449.415 102.693 449.508 102.619 449.57 102.521C449.633 102.425 449.667 102.313 449.669 102.198C449.671 102.086 449.64 101.976 449.581 101.881C449.523 101.787 449.438 101.711 449.337 101.664C449.173 101.61 449 101.586 448.828 101.592H448.215Z" fill="#1E1E1E"/>
<path d="M351.069 127.186C361.181 127.186 369.379 118.916 369.379 108.713C369.379 98.5104 361.181 90.2396 351.069 90.2396C340.957 90.2396 332.759 98.5104 332.759 108.713C332.759 118.916 340.957 127.186 351.069 127.186Z" fill="url(#paint1_linear)" stroke="url(#paint2_linear)" stroke-opacity="0.47" stroke-miterlimit="10"/>
<path d="M302.513 116.243L302.768 101.189L305.427 101.236L305.439 101.236L305.45 101.235C306.369 101.21 307.285 101.367 308.144 101.698C308.702 101.959 309.171 102.383 309.49 102.917L309.491 102.918C309.821 103.467 309.988 104.101 309.972 104.744L309.972 104.744L309.972 104.753C309.968 105.347 309.802 105.928 309.494 106.433C309.166 106.954 308.702 107.374 308.155 107.648L307.06 108.196L308.225 108.571C308.851 108.773 309.435 109.091 309.946 109.508C310.324 109.845 310.625 110.261 310.827 110.728L310.827 110.729C311.041 111.221 311.144 111.754 311.129 112.29L311.129 112.29L311.129 112.302C311.128 112.846 311.012 113.383 310.789 113.878C310.567 114.373 310.243 114.814 309.84 115.173L309.84 115.173L309.834 115.178C308.998 115.944 307.868 116.338 306.386 116.31L306.385 116.31L302.513 116.243ZM303.699 108.548L303.199 108.539L303.191 109.039L303.084 115.196L303.075 115.695L303.575 115.704L305.537 115.74C306.46 115.801 307.386 115.692 308.27 115.419L308.288 115.413L308.305 115.407C308.932 115.16 309.471 114.732 309.855 114.176C310.28 113.577 310.494 112.853 310.465 112.118C310.435 111.382 310.163 110.676 309.69 110.113L309.69 110.113L309.683 110.106C309.118 109.459 308.365 109.008 307.529 108.819L307.521 108.817L307.512 108.816C306.549 108.633 305.571 108.549 304.592 108.564L303.699 108.548ZM303.813 101.774L303.318 101.769L303.309 102.265L303.218 107.409L303.209 107.918H303.718H304.614C305.491 107.975 306.371 107.877 307.215 107.631L307.231 107.626L307.246 107.621C307.847 107.402 308.366 107.004 308.735 106.48C309.101 105.968 309.301 105.356 309.309 104.726C309.332 104.325 309.264 103.924 309.108 103.554C308.95 103.18 308.708 102.847 308.4 102.583L308.398 102.582C307.767 102.045 306.817 101.81 305.659 101.79L305.659 101.79L305.654 101.79L303.813 101.774Z" fill="#1E1E1E" stroke="#1E1E1E"/>
<path d="M325.391 113.843C325.077 114.37 324.69 114.851 324.242 115.27C323.744 115.718 323.166 116.066 322.539 116.295C321.849 116.538 321.121 116.65 320.391 116.625L320.391 116.625L320.382 116.625C318.58 116.595 317.237 115.981 316.286 114.816L316.286 114.816L316.279 114.807C315.33 113.698 314.821 112.273 314.85 110.807L314.85 110.807L314.85 110.801C314.862 109.459 315.333 108.162 316.182 107.13L316.187 107.124L316.191 107.118C316.697 106.466 317.351 105.946 318.097 105.602C318.843 105.259 319.659 105.102 320.478 105.144L320.495 105.145L320.511 105.144C321.357 105.132 322.193 105.324 322.951 105.704C323.708 106.083 324.365 106.641 324.867 107.33L324.868 107.331C325.563 108.28 325.961 109.414 326.016 110.587L315.931 110.413L315.438 110.404L315.423 110.897C315.379 112.285 315.874 113.636 316.803 114.663C317.244 115.151 317.781 115.541 318.381 115.807C318.979 116.072 319.625 116.208 320.279 116.206C320.933 116.218 321.584 116.113 322.202 115.896C322.786 115.701 323.331 115.403 323.811 115.016L323.827 115.003L323.842 114.989C324.275 114.578 324.657 114.117 324.981 113.616L325.391 113.843ZM324.848 110.257L325.466 110.267L325.347 109.661C325.194 108.88 324.876 108.142 324.414 107.497L324.407 107.488L324.399 107.478C323.947 106.907 323.369 106.449 322.71 106.142C322.031 105.809 321.289 105.628 320.534 105.611C319.308 105.569 318.113 105.996 317.188 106.807L317.18 106.814L317.173 106.821C316.413 107.547 315.874 108.474 315.615 109.495L315.46 110.107L316.092 110.117L324.848 110.257Z" fill="#1E1E1E" stroke="#1E1E1E"/>
<path d="M383.959 114.564L383.959 114.563C384.256 114.085 384.418 113.534 384.429 112.97L384.429 112.97L384.429 112.959C384.427 112.283 384.215 111.625 383.823 111.076L383.818 111.07L383.813 111.063C383.022 110.028 382.086 109.113 381.036 108.346C380.387 107.835 379.867 107.4 379.474 107.04C379.074 106.672 378.828 106.403 378.707 106.224L378.701 106.216L378.695 106.208C378.234 105.584 377.99 104.823 378.003 104.043L378.003 104.043L378.003 104.038C378.007 103.456 378.165 102.886 378.462 102.387C378.755 101.9 379.174 101.504 379.674 101.242L379.675 101.242C380.209 100.962 380.804 100.823 381.405 100.837L381.409 100.837C382.054 100.847 382.686 101.028 383.241 101.36C383.866 101.787 384.414 102.317 384.864 102.927L384.345 103.311C383.967 102.822 383.523 102.387 383.026 102.019L383.01 102.008L382.994 101.997C382.506 101.692 381.944 101.528 381.369 101.523C381.02 101.505 380.671 101.556 380.341 101.673C380.008 101.792 379.701 101.975 379.439 102.214C379.186 102.441 378.983 102.72 378.845 103.032C378.708 103.343 378.638 103.679 378.638 104.019C378.631 104.438 378.712 104.854 378.876 105.239L378.879 105.247L378.883 105.255C379.098 105.713 379.393 106.129 379.754 106.482C379.992 106.721 380.703 107.294 381.829 108.163C383.173 109.215 384.047 110.101 384.501 110.824L384.501 110.824L384.506 110.831C384.922 111.47 385.147 112.217 385.151 112.983C385.144 113.483 385.034 113.976 384.828 114.43C384.621 114.886 384.323 115.293 383.951 115.625L383.944 115.631L383.938 115.637C383.558 116.004 383.109 116.289 382.618 116.477C382.128 116.665 381.605 116.752 381.08 116.733L381.08 116.733L381.067 116.733C380.237 116.725 379.428 116.47 378.741 115.999C378.013 115.438 377.409 114.73 376.968 113.922L377.489 113.619C378.399 115.184 379.531 116.114 380.925 116.138C381.531 116.153 382.131 116.014 382.67 115.734C383.2 115.472 383.646 115.067 383.959 114.564Z" fill="#1E1E1E" stroke="#1E1E1E"/>
<path d="M391.179 107.295C391.687 106.614 392.333 106.051 393.073 105.643C393.736 105.294 394.477 105.121 395.224 105.14L395.224 105.141H395.237C395.967 105.141 396.68 105.36 397.286 105.771L397.287 105.772C397.869 106.167 398.321 106.73 398.584 107.388L398.584 107.389C398.854 108.058 398.997 109.17 398.971 110.781C398.971 110.781 398.971 110.781 398.971 110.781L398.873 116.393L398.36 116.383L398.45 111.225C398.498 110.281 398.458 109.335 398.331 108.399L398.33 108.389L398.328 108.379C398.185 107.566 397.77 106.825 397.151 106.281L397.139 106.271L397.127 106.261C396.486 105.765 395.696 105.506 394.888 105.527C393.87 105.507 392.879 105.857 392.097 106.513C391.297 107.149 390.722 108.027 390.457 109.018L390.452 109.035L390.449 109.053C390.238 110.147 390.143 111.261 390.167 112.376L390.101 116.225L389.584 116.216L389.859 100.762L390.388 100.772L390.278 106.987L390.251 108.537L391.179 107.295Z" fill="#1E1E1E" stroke="#1E1E1E"/>
<path d="M414.925 105.035L414.72 116.914L413.227 116.886L413.262 114.846C412.671 115.57 411.931 116.157 411.094 116.567C410.28 116.948 409.389 117.134 408.491 117.109C407.692 117.107 406.903 116.937 406.173 116.609C405.443 116.281 404.789 115.802 404.253 115.204C403.688 114.61 403.247 113.908 402.956 113.138C402.665 112.369 402.53 111.548 402.559 110.725C402.561 109.909 402.728 109.102 403.048 108.353C403.369 107.604 403.836 106.928 404.423 106.366C404.988 105.787 405.666 105.333 406.414 105.033C407.162 104.732 407.963 104.592 408.768 104.621C409.68 104.623 410.578 104.852 411.382 105.286C412.196 105.753 412.89 106.405 413.409 107.191L413.448 105.007L414.925 105.035ZM408.851 106.095C408.027 106.074 407.212 106.279 406.494 106.687C405.776 107.096 405.18 107.692 404.771 108.414C404.345 109.135 404.114 109.956 404.1 110.794C404.086 111.633 404.29 112.461 404.692 113.196C405.082 113.941 405.663 114.567 406.374 115.009C407.066 115.441 407.86 115.677 408.673 115.69C409.501 115.705 410.318 115.5 411.043 115.097C411.769 114.712 412.374 114.129 412.788 113.415C413.206 112.677 413.427 111.842 413.428 110.992C413.457 110.356 413.358 109.721 413.137 109.125C412.917 108.529 412.579 107.983 412.145 107.522C411.723 107.068 411.212 106.707 410.645 106.461C410.079 106.216 409.468 106.091 408.851 106.095Z" fill="#1E1E1E"/>
<path d="M420.628 107.331C421.132 106.629 421.789 106.054 422.549 105.651C423.283 105.282 424.097 105.104 424.917 105.132L424.925 105.133L424.933 105.133C425.667 105.133 426.393 105.288 427.065 105.586C427.737 105.884 428.34 106.32 428.838 106.866L428.843 106.872L428.849 106.878C429.369 107.412 429.776 108.047 430.046 108.744C430.315 109.442 430.442 110.188 430.418 110.936L430.417 110.945L430.417 110.953C430.418 111.711 430.269 112.461 429.977 113.158C429.685 113.856 429.257 114.487 428.719 115.014L428.719 115.014L428.713 115.02C427.905 115.838 426.863 116.377 425.734 116.56C424.607 116.743 423.452 116.563 422.433 116.044C421.679 115.638 421.019 115.075 420.497 114.391L419.625 113.247L419.6 114.685L419.498 120.561L418.985 120.551L419.237 105.337L419.75 105.346L419.722 107.031L419.696 108.63L420.628 107.331ZM429.865 110.984C429.883 110.057 429.66 109.14 429.218 108.326C428.792 107.514 428.156 106.832 427.378 106.353C426.6 105.874 425.708 105.615 424.796 105.603C424.112 105.577 423.43 105.694 422.794 105.948C422.156 106.202 421.578 106.586 421.096 107.077C420.599 107.57 420.207 108.159 419.941 108.808C419.676 109.454 419.542 110.148 419.548 110.847C419.519 111.779 419.731 112.702 420.162 113.527L420.162 113.527L420.164 113.531C420.596 114.341 421.245 115.012 422.038 115.468C422.824 115.939 423.718 116.195 424.632 116.21C425.53 116.229 426.416 115.999 427.194 115.546C427.998 115.089 428.663 114.421 429.119 113.614C429.591 112.817 429.848 111.911 429.865 110.984Z" fill="#1E1E1E" stroke="#1E1E1E"/>
<path d="M443.446 115.271C443.893 114.85 444.279 114.369 444.593 113.842L444.183 113.615C443.854 114.118 443.467 114.58 443.031 114.994L443.016 115.008L443 115.02C442.518 115.407 441.972 115.705 441.388 115.9C440.77 116.117 440.119 116.222 439.464 116.21C438.811 116.212 438.164 116.076 437.566 115.811C436.967 115.545 436.429 115.155 435.989 114.667L443.446 115.271ZM443.446 115.271C442.949 115.719 442.371 116.067 441.744 116.296C441.053 116.539 440.323 116.651 439.592 116.625L439.592 116.625L439.583 116.625C437.787 116.595 436.445 115.981 435.491 114.816L435.491 114.816L435.485 114.809C434.578 113.74 434.07 112.384 434.052 110.976C434.034 109.567 434.507 108.198 435.387 107.106L435.387 107.106L435.393 107.099C435.898 106.446 436.552 105.926 437.298 105.583C438.044 105.239 438.861 105.082 439.679 105.124L439.696 105.125L439.712 105.125C440.558 105.112 441.395 105.304 442.154 105.684C442.912 106.064 443.569 106.621 444.072 107.31C444.767 108.268 445.16 109.411 445.206 110.591L435.117 110.417L434.623 110.408L434.608 110.901C434.566 112.289 435.061 113.639 435.989 114.667L443.446 115.271ZM444.054 110.257L444.674 110.267L444.552 109.659C444.395 108.881 444.078 108.145 443.62 107.499L443.612 107.488L443.603 107.477C443.15 106.908 442.573 106.451 441.916 106.142C441.23 105.806 440.478 105.624 439.715 105.611C438.49 105.567 437.295 105.995 436.373 106.808L436.365 106.815L436.358 106.822C435.599 107.547 435.059 108.473 434.797 109.494L434.64 110.107L435.274 110.118L444.054 110.257Z" fill="#1E1E1E" stroke="#1E1E1E"/>
<g filter="url(#filter0_d)">
<path d="M342.645 104.437C342.707 104.536 342.742 104.649 342.747 104.766C342.752 104.883 342.726 104.999 342.673 105.103C342.633 105.214 342.487 105.346 342.23 105.501C342.055 105.594 341.89 105.705 341.737 105.832C341.298 106.278 340.848 107.338 340.39 109.02C339.932 110.701 339.833 111.913 340.09 112.654H340.256C340.729 112.618 341.646 112.236 343 111.514C344.355 110.793 345.591 110.132 346.709 109.522C347.827 108.912 348.443 108.661 348.554 108.773L347.341 109.713C346.501 110.343 345.568 111.036 344.541 111.793L342.396 113.387C341.797 113.741 341.149 114.002 340.473 114.16C340.182 114.239 339.875 114.225 339.592 114.121C339.309 114.017 339.065 113.827 338.893 113.578C338.534 113.032 338.386 112.371 338.478 111.721C338.558 110.964 338.733 110.219 339 109.506C339.276 108.765 339.596 108 339.963 107.203C340.331 106.406 340.587 105.828 340.753 105.457C340.79 104.089 341.248 103.59 342.128 103.959C342.341 104.067 342.52 104.232 342.645 104.437V104.437ZM341.626 100.393C341.626 100.429 341.82 100.317 342.203 100.058C342.547 99.8255 342.917 99.633 343.305 99.4843C343.467 99.42 343.647 99.4156 343.812 99.4717C343.977 99.5278 344.118 99.6409 344.209 99.7911C344.355 100.086 344.209 100.389 343.771 100.704C343.359 101.006 342.892 101.222 342.396 101.341C342.323 101.342 342.25 101.352 342.179 101.369C342.107 101.388 342.032 101.397 341.958 101.397C341.841 101.413 341.722 101.383 341.626 101.313C341.369 101.11 341.508 101.002 341.417 100.688C341.418 100.623 341.439 100.56 341.476 100.508C341.514 100.455 341.566 100.415 341.626 100.393V100.393Z" fill="#1E1E1E"/>
<path d="M342.229 104.873L342.216 104.897C342.212 104.902 342.206 104.907 342.198 104.914C342.158 104.95 342.09 105.001 341.983 105.067C341.782 105.174 341.593 105.302 341.417 105.447L341.398 105.463L341.38 105.482C341.316 105.547 341.253 105.62 341.192 105.701C341.198 105.688 341.204 105.675 341.21 105.662L341.25 105.571L341.253 105.471C341.271 104.803 341.395 104.501 341.493 104.395C341.525 104.36 341.552 104.347 341.595 104.343C341.651 104.337 341.753 104.347 341.917 104.413C342.04 104.479 342.144 104.577 342.218 104.698L342.645 104.437L342.222 104.704C342.237 104.728 342.246 104.757 342.248 104.787C342.249 104.817 342.242 104.846 342.229 104.873ZM343.235 111.956C343.534 111.797 343.827 111.64 344.115 111.487L342.119 112.97C341.57 113.291 340.977 113.528 340.359 113.673L340.351 113.675L340.343 113.677C340.152 113.729 339.95 113.72 339.765 113.652C339.581 113.584 339.421 113.461 339.307 113.298C339.018 112.855 338.898 112.319 338.973 111.792L338.975 111.783L338.975 111.774C339.051 111.058 339.216 110.355 339.468 109.681L339.468 109.681C339.684 109.101 339.928 108.505 340.201 107.889C340.103 108.196 340.005 108.53 339.907 108.888C339.673 109.747 339.527 110.502 339.473 111.148C339.421 111.79 339.457 112.355 339.617 112.818L339.734 113.154H340.09H340.256H340.274L340.293 113.152C340.615 113.128 341.025 112.996 341.49 112.803C341.968 112.604 342.551 112.32 343.235 111.956ZM341.951 100.856C341.95 100.842 341.948 100.826 341.947 100.81L342.203 100.058L342.482 100.473C342.482 100.473 342.482 100.472 342.482 100.472C342.796 100.261 343.132 100.086 343.484 99.951L343.484 99.9511L343.488 99.9492C343.541 99.9286 343.598 99.9271 343.651 99.9452C343.693 99.9594 343.731 99.9852 343.76 100.02C343.759 100.021 343.759 100.022 343.758 100.023C343.737 100.067 343.667 100.162 343.479 100.297L343.479 100.297L343.475 100.3C343.129 100.554 342.739 100.738 342.326 100.844C342.236 100.849 342.147 100.862 342.06 100.883L342.06 100.883L342.053 100.885C342.022 100.893 341.991 100.897 341.96 100.897L341.953 100.897C341.952 100.884 341.951 100.87 341.951 100.856ZM342.063 100.151C342.109 100.234 342.126 100.321 342.126 100.393H341.66C341.719 100.37 341.854 100.29 342.063 100.151Z" stroke="#1E1E1E"/>
</g>
<g filter="url(#filter1_d)">
<path d="M350.639 108.04C350.415 108.198 350.212 108.384 350.034 108.594C349.824 108.93 349.641 109.284 349.485 109.65C349.232 110.105 349.029 110.587 348.881 111.088C348.881 111.052 349.008 110.941 349.276 110.757C350.15 110.005 350.985 109.207 351.776 108.366C352.823 107.275 353.471 106.617 353.727 106.398C354.482 105.578 355.33 104.852 356.255 104.234C356.426 104.127 356.62 104.061 356.821 104.042C357.021 104.022 357.224 104.05 357.412 104.123C357.592 104.197 357.748 104.318 357.864 104.475C357.98 104.631 358.052 104.817 358.072 105.011C358.178 105.9 357.997 107.155 357.519 108.781C357.041 110.407 356.879 111.722 357.025 112.718C357.079 112.963 357.172 113.197 357.302 113.411C357.352 113.491 357.42 113.558 357.502 113.606C357.583 113.654 357.674 113.681 357.768 113.686C357.969 113.686 358.163 113.714 358.344 113.714C358.581 113.703 358.814 113.647 359.032 113.551C359.239 113.472 359.441 113.379 359.636 113.272C359.766 113.2 360.102 113.013 360.655 112.718C360.947 112.57 361.512 112.24 362.357 111.722C363.202 111.204 363.937 110.749 364.581 110.363C365.224 109.976 365.564 109.817 365.6 109.889C365.71 110 365.184 110.555 364.02 111.554C363.144 112.331 362.208 113.036 361.22 113.662C359.715 114.623 358.49 115.045 357.535 114.937C357.131 114.876 356.746 114.724 356.409 114.491C356.089 114.257 355.864 113.912 355.777 113.523C355.674 113.131 355.601 112.731 355.56 112.327C355.525 111.846 355.542 111.362 355.611 110.885C355.686 110.295 355.757 109.821 355.832 109.47C355.907 109.12 356.006 108.673 356.137 108.083C356.267 107.494 356.346 107.151 356.381 107.004C356.389 106.881 356.407 106.76 356.437 106.641C356.472 106.478 356.512 106.318 356.547 106.171C356.582 106.041 356.6 105.907 356.603 105.772C356.524 105.82 356.45 105.875 356.381 105.936C355.233 106.828 354.141 107.792 353.111 108.821C351.737 110.149 350.702 111.092 350.007 111.65C349.383 112.168 348.873 112.387 348.47 112.315C348.245 112.26 348.042 112.133 347.894 111.953C347.829 111.867 347.783 111.768 347.759 111.663C347.736 111.558 347.734 111.449 347.756 111.343C347.796 111.081 347.85 110.822 347.917 110.566C347.997 110.278 348.108 110 348.249 109.737C348.395 109.458 348.522 109.219 348.644 109.016C348.767 108.813 348.865 108.617 348.976 108.434C349.047 108.332 349.103 108.219 349.142 108.099C349.323 107.433 349.561 106.784 349.853 106.159C350.039 105.826 350.312 105.55 350.643 105.362C350.764 105.281 350.906 105.235 351.052 105.23C351.197 105.226 351.341 105.261 351.468 105.334C351.592 105.414 351.693 105.525 351.762 105.657C351.832 105.788 351.866 105.935 351.863 106.083C351.873 106.467 351.768 106.844 351.563 107.167C351.316 107.517 351.002 107.814 350.639 108.04Z" fill="#1E1E1E"/>
<path d="M350.375 107.615L350.362 107.623L350.35 107.631C350.092 107.814 349.858 108.029 349.653 108.27L349.63 108.298L349.61 108.329C349.591 108.359 349.573 108.389 349.555 108.42C349.578 108.365 349.599 108.31 349.618 108.253L349.621 108.242L349.624 108.231C349.797 107.598 350.022 106.982 350.298 106.388C350.44 106.141 350.644 105.936 350.89 105.796L350.905 105.788L350.92 105.778C350.964 105.748 351.016 105.732 351.068 105.73C351.117 105.729 351.164 105.739 351.208 105.761C351.254 105.794 351.293 105.838 351.32 105.89C351.35 105.946 351.365 106.009 351.363 106.073L351.363 106.084L351.363 106.096C351.371 106.377 351.295 106.652 351.147 106.889C350.94 107.18 350.677 107.427 350.375 107.615ZM349.253 108.958C349.265 108.936 349.277 108.915 349.288 108.895C349.197 109.07 349.113 109.248 349.036 109.43C348.776 109.9 348.567 110.397 348.412 110.911C348.396 110.958 348.381 111.018 348.381 111.088L349.36 111.23C349.358 111.235 349.356 111.241 349.355 111.246C349.342 111.28 349.329 111.306 349.319 111.322C349.301 111.353 349.285 111.372 349.282 111.376C349.279 111.379 349.278 111.38 349.278 111.38C349.278 111.38 349.285 111.373 349.301 111.359C349.347 111.32 349.43 111.258 349.558 111.17L349.581 111.155L349.602 111.136C350.489 110.373 351.336 109.564 352.139 108.711C353.194 107.61 353.819 106.977 354.052 106.778L354.075 106.759L354.095 106.736C354.821 105.948 355.637 105.249 356.526 104.654C356.63 104.59 356.747 104.551 356.869 104.539C356.99 104.528 357.112 104.544 357.227 104.587C357.32 104.626 357.401 104.69 357.462 104.773C357.525 104.857 357.564 104.957 357.574 105.062L357.574 105.062L357.575 105.071C357.67 105.857 357.512 107.033 357.039 108.64C356.553 110.295 356.369 111.691 356.53 112.79L356.533 112.808L356.537 112.825C356.602 113.123 356.716 113.408 356.873 113.669L356.873 113.669L356.878 113.677C356.971 113.825 357.097 113.948 357.248 114.036C357.398 114.125 357.567 114.176 357.741 114.185L357.754 114.186H357.768C357.848 114.186 357.929 114.192 358.027 114.199L358.04 114.2C358.13 114.206 358.237 114.214 358.344 114.214H358.356L358.368 114.213C358.662 114.2 358.952 114.132 359.222 114.013C359.447 113.927 359.666 113.826 359.877 113.71L359.877 113.71C359.896 113.699 359.919 113.687 359.946 113.672C360.108 113.582 360.417 113.411 360.885 113.162C361.125 113.04 361.52 112.813 362.064 112.485C361.702 112.748 361.331 113 360.952 113.24L360.951 113.241C359.477 114.181 358.379 114.525 357.6 114.441C357.277 114.391 356.97 114.269 356.699 114.084C356.48 113.921 356.325 113.684 356.265 113.414L356.263 113.404L356.261 113.395C356.164 113.031 356.097 112.659 356.058 112.284C356.026 111.841 356.042 111.396 356.106 110.956L356.106 110.956L356.107 110.948C356.182 110.36 356.251 109.904 356.321 109.575C356.393 109.24 356.486 108.817 356.609 108.262L356.625 108.191C356.755 107.602 356.833 107.263 356.867 107.121L356.878 107.078L356.88 107.034C356.886 106.942 356.9 106.85 356.922 106.761L356.924 106.754L356.925 106.747C356.953 106.619 356.983 106.494 357.014 106.369C357.02 106.344 357.026 106.318 357.032 106.293C357.076 106.126 357.099 105.954 357.102 105.781L357.119 104.874L356.343 105.345C356.244 105.405 356.15 105.474 356.062 105.55C354.903 106.452 353.801 107.425 352.761 108.464C351.389 109.789 350.369 110.718 349.694 111.26L349.694 111.26L349.687 111.265C349.095 111.757 348.745 111.848 348.572 111.825C348.462 111.795 348.363 111.732 348.287 111.644C348.268 111.617 348.255 111.586 348.247 111.552C348.239 111.516 348.238 111.478 348.246 111.442L348.248 111.431L348.25 111.42C348.288 111.176 348.338 110.935 348.4 110.696C348.47 110.445 348.567 110.203 348.69 109.973L348.69 109.973L348.692 109.969C348.84 109.688 348.959 109.462 349.072 109.274C349.139 109.163 349.198 109.056 349.252 108.96L349.253 108.958Z" stroke="#1E1E1E"/>
</g>
</g>
<defs>
<filter id="filter0_d" x="334.451" y="95.4326" width="18.1021" height="22.7777" filterUnits="userSpaceOnUse" color-interpolation-filters="sRGB">
<feFlood flood-opacity="0" result="BackgroundImageFix"/>
<feColorMatrix in="SourceAlpha" type="matrix" values="0 0 0 0 0 0 0 0 0 0 0 0 0 0 0 0 0 0 127 0" result="hardAlpha"/>
<feOffset/>
<feGaussianBlur stdDeviation="2"/>
<feColorMatrix type="matrix" values="0 0 0 0 0 0 0 0 0 0 0 0 0 0 0 0 0 0 0.25 0"/>
<feBlend mode="normal" in2="BackgroundImageFix" result="effect1_dropShadow"/>
<feBlend mode="normal" in="SourceGraphic" in2="effect1_dropShadow" result="shape"/>
</filter>
<filter id="filter1_d" x="343.74" y="100.036" width="25.8736" height="18.9181" filterUnits="userSpaceOnUse" color-interpolation-filters="sRGB">
<feFlood flood-opacity="0" result="BackgroundImageFix"/>
<feColorMatrix in="SourceAlpha" type="matrix" values="0 0 0 0 0 0 0 0 0 0 0 0 0 0 0 0 0 0 127 0" result="hardAlpha"/>
<feOffset/>
<feGaussianBlur stdDeviation="2"/>
<feColorMatrix type="matrix" values="0 0 0 0 0 0 0 0 0 0 0 0 0 0 0 0 0 0 0.25 0"/>
<feBlend mode="normal" in2="BackgroundImageFix" result="effect1_dropShadow"/>
<feBlend mode="normal" in="SourceGraphic" in2="effect1_dropShadow" result="shape"/>
</filter>
<linearGradient id="paint0_linear" x1="377" y1="0" x2="377" y2="219.983" gradientUnits="userSpaceOnUse">
<stop stop-color="#90E6CB"/>
<stop offset="0.96875" stop-color="#B6FBFF"/>
</linearGradient>
<linearGradient id="paint1_linear" x1="338" y1="97" x2="376" y2="136" gradientUnits="userSpaceOnUse">
<stop stop-color="#FDE1F9"/>
<stop offset="1" stop-color="#50F0BF"/>
</linearGradient>
<linearGradient id="paint2_linear" x1="329.283" y1="90.7389" x2="363.05" y2="132.116" gradientUnits="userSpaceOnUse">
<stop stop-color="#FFD8FD"/>
<stop offset="0.447917" stop-color="#FFD8FD" stop-opacity="0"/>
<stop offset="1" stop-color="#83CFB8"/>
</linearGradient>
<clipPath id="clip0">
<rect width="150" height="45" fill="white" transform="translate(302 87)"/>
</clipPath>
</defs>
</svg>
